<svg id="visual" viewBox="0 0 900 600" width="900" height="600" xmlns="http://www.w3.org/2000/svg" xmlns:xlink="http://www.w3.org/1999/xlink" version="1.1"><rect x="0" y="0" width="900" height="600" fill="#000000"></rect><g transform="translate(964.2531778594996 -75.51109646276228)"><path d="M287.5 -453.5C326.1 -475.8 278.7 -304.6 274.4 -196.8C270.2 -89 309.1 -44.5 348.6 22.8C388.2 90.2 428.3 180.3 401.3 233.9C374.2 287.4 279.8 304.4 201.8 384.3C123.7 464.2 61.8 607.1 0.3 606.5C-61.2 605.9 -122.3 461.9 -220.3 393.5C-318.3 325.1 -453.2 332.3 -507.4 279.3C-561.7 226.3 -535.3 113.2 -502.4 19C-469.5 -75.2 -430.1 -150.3 -390.6 -229C-351.2 -307.7 -311.9 -389.8 -246.8 -352.2C-181.7 -314.7 -90.8 -157.3 16.8 -186.5C124.5 -215.6 249 -431.3 287.5 -453.5" fill="#4FACF7"></path></g></svg>