<svg id="visual" viewBox="0 0 900 600" width="900" height="600" xmlns="http://www.w3.org/2000/svg" xmlns:xlink="http://www.w3.org/1999/xlink" version="1.1"><rect x="0" y="0" width="900" height="600" fill="#ffffff"></rect><defs><linearGradient id="grad1_0" x1="33.3%" y1="100%" x2="100%" y2="0%"><stop offset="20%" stop-color="#ffffff" stop-opacity="1"></stop><stop offset="80%" stop-color="#ffffff" stop-opacity="1"></stop></linearGradient></defs><defs><linearGradient id="grad2_0" x1="0%" y1="100%" x2="66.7%" y2="0%"><stop offset="20%" stop-color="#ffffff" stop-opacity="1"></stop><stop offset="80%" stop-color="#ffffff" stop-opacity="1"></stop></linearGradient></defs><g transform="translate(900, 600)"><path d="M-258 0C-263.3 -24.5 -268.6 -49.1 -261.2 -70C-253.8 -90.9 -233.8 -108.2 -219.1 -126.5C-204.4 -144.8 -194.9 -163.9 -181 -181C-167.1 -198.1 -148.9 -213.1 -128.5 -222.6C-108.1 -232.1 -85.7 -236.1 -63.9 -238.6C-42.2 -241.1 -21.1 -242 0 -243L0 0Z" fill="#FBAE3C"></path></g><g transform="translate(0, 0)"><path d="M268 0C264 23.5 259.9 47 251.1 67.3C242.3 87.6 228.7 104.7 220 127C211.2 149.3 207.2 176.7 191.2 191.2C175.2 205.8 147.1 207.5 125 216.5C102.9 225.5 86.9 241.9 67 250.2C47.2 258.5 23.6 258.7 0 259L0 0Z" fill="#FBAE3C"></path></g></svg>